<svg width="15" height="16" viewBox="0 0 15 16" fill="none" xmlns="http://www.w3.org/2000/svg">
<g clip-path="url(#clip0_25_175)">
<path d="M12.5 6.61017H6.87497C6.18461 6.61017 5.62497 7.16981 5.62497 7.86017V13.4852C5.62497 14.1755 6.18461 14.7352 6.87497 14.7352H12.5C13.1903 14.7352 13.75 14.1755 13.75 13.4852V7.86017C13.75 7.16981 13.1903 6.61017 12.5 6.61017Z" stroke="#444444" stroke-width="1.37" stroke-linecap="round" stroke-linejoin="round"/>
<path d="M3.12497 10.3602H2.49997C2.16845 10.3602 1.85051 10.2285 1.61609 9.99405C1.38167 9.75963 1.24997 9.44169 1.24997 9.11017V3.48517C1.24997 3.15365 1.38167 2.83571 1.61609 2.60128C1.85051 2.36686 2.16845 2.23517 2.49997 2.23517H8.12497C8.45649 2.23517 8.77443 2.36686 9.00885 2.60128C9.24327 2.83571 9.37497 3.15365 9.37497 3.48517V4.11017" stroke="#444444" stroke-width="1.37" stroke-linecap="round" stroke-linejoin="round"/>
</g>
<defs>
<clipPath id="clip0_25_175">
<rect width="15" height="15" fill="white" transform="translate(-3.05176e-05 0.985168)"/>
</clipPath>
</defs>
</svg>
