<svg width="16" height="16" viewBox="0 0 16 16" fill="none" xmlns="http://www.w3.org/2000/svg">
<g clip-path="url(#clip0_16_7)">
<path d="M7.678 3.46625H3.33607C3.00706 3.46625 2.69152 3.59695 2.45887 3.8296C2.22622 4.06224 2.09552 4.37778 2.09552 4.7068V13.3906C2.09552 13.7197 2.22622 14.0352 2.45887 14.2678C2.69152 14.5005 3.00706 14.6312 3.33607 14.6312H12.0199C12.3489 14.6312 12.6645 14.5005 12.8971 14.2678C13.1298 14.0352 13.2605 13.7197 13.2605 13.3906V9.04872" stroke="#444444" stroke-width="1.36594" stroke-linecap="round" stroke-linejoin="round"/>
<path d="M12.3301 2.53578C12.5768 2.28902 12.9115 2.15039 13.2605 2.15039C13.6094 2.15039 13.9441 2.28902 14.1909 2.53578C14.4376 2.78254 14.5763 3.11722 14.5763 3.46619C14.5763 3.81516 14.4376 4.14984 14.1909 4.3966L8.29827 10.2892L5.81717 10.9095L6.43744 8.42839L12.3301 2.53578Z" stroke="#444444" stroke-width="1.36594" stroke-linecap="round" stroke-linejoin="round"/>
</g>
<defs>
<clipPath id="clip0_16_7">
<rect width="14.8866" height="14.8866" fill="white" transform="translate(0.85498 0.985168)"/>
</clipPath>
</defs>
</svg>
